<svg version="1.2" xmlns="http://www.w3.org/2000/svg" viewBox="0 0 81 81" width="48" height="48">
	<style>
		.s0 { fill: #9cca3b } 
		.s1 { fill: #00a896 } 
		.s2 { fill: #fefefe } 
	</style>
	<g id="Capa 1">
		<path id="&lt;Path&gt;" class="s0" d="m74.45 40.16l-27.11-28.91-35.87 16.85 4.94 39.32 38.93 7.46z"/>
		<path id="&lt;Path&gt;" class="s1" d="m36.8 11.25l-28.91 27.11 16.85 35.87 39.32-4.94 7.46-38.92z"/>
		<path id="&lt;Compound Path&gt;" class="s1" d="m108.56 46.39l-2.22 6.69h-23.04v-0.64q0.77-0.04 2.12-0.25 1.35-0.2 1.99-0.72 0.71-0.59 0.98-1.55 0.26-0.97 0.37-2.51 0.08-1.15 0.12-2.5 0.04-1.36 0.06-2.58 0.02-1.22 0.02-3.54 0-5.17-0.08-9.05-0.06-2.3-0.28-3.16-0.21-0.87-0.95-1.34-0.57-0.37-1.28-0.55-0.7-0.19-1.41-0.29-0.7-0.1-0.99-0.12v-0.63q1.05 0 3.59 0.01 2.55 0.01 5.54 0.02 2.98 0.01 8.52 0.01 1.77 0 2.51-0.04 0.74-0.04 1.2-0.22 0.46-0.17 0.7-0.58h0.48l-0.37 6.83h-0.56q-0.02-0.62-0.26-1.68-0.25-1.07-0.87-1.5-0.63-0.47-1.69-0.68-1.06-0.2-2.43-0.2h-6.61q-0.06 1.79-0.13 5.25-0.07 3.46-0.07 6.2l7.26-0.12q1.42-0.01 2.07-0.68 0.45-0.49 0.63-1.04 0.17-0.54 0.38-1.65h0.55v8.99h-0.55q-0.12-0.66-0.46-1.82-0.34-1.16-0.94-1.71h-8.94q0 1.21 0.03 3.91 0.03 2.7 0.09 4.07 0.1 1.81 0.45 2.68 0.35 0.87 1.36 1.28 1.02 0.41 3.11 0.41 2.24 0 4.25-0.55 2.01-0.56 3.37-1.72 0.7-0.62 1.19-1.53 0.49-0.92 0.7-1.41z"/>
		<path id="&lt;Compound Path&gt;" class="s1" d="m147.33 24.28q-0.62 0.04-1.73 0.27-1.11 0.23-1.72 0.7-0.66 0.47-0.98 1.28-0.31 0.81-0.44 2.08-0.12 1.28-0.14 2.86 0 0.37-0.12 4.76-0.13 4.39-0.13 5.09 0 3.51-1.23 6.34-1.23 2.83-4.01 4.48-2.78 1.65-7.07 1.65-6.65 0-9.74-2.86-3.09-2.86-3.09-7.52 0.02-2.34 0.03-4.3 0.01-1.96 0.01-5.08 0-3.14-0.04-4.66-0.04-1.27-0.16-2.03-0.13-0.76-0.4-1.27-0.28-0.51-0.77-0.86-0.47-0.33-1.76-0.58-1.28-0.24-2.04-0.35v-0.63h15.48v0.63q-0.72 0.04-2.05 0.27-1.34 0.23-2.08 0.7-0.8 0.49-1.06 1.3-0.25 0.81-0.31 2.74-0.03 0.29-0.04 0.94-0.01 0.66-0.01 1.14 0 0.49 0 1.06 0 1.95 0.13 7.74 0.04 2.38 0.31 4.06 0.26 1.68 1.22 3.29 0.95 1.62 3.04 2.64 2.08 1.03 5.52 1.03 1.74 0 3.33-0.73 1.6-0.73 2.52-1.76 1.28-1.41 1.69-3.25 0.41-1.83 0.41-4.89 0-3.59-0.03-4.59-0.03-1-0.14-3.99-0.1-2.75-0.36-4.15-0.25-1.39-0.81-2.01-0.55-0.61-1.72-1.07-0.6-0.24-1.4-0.35-0.8-0.12-1.17-0.12v-0.63h13.06z"/>
		<path id="&lt;Compound Path&gt;" fill-rule="evenodd" class="s1" d="m183.3 38.16q0 4.1-2.11 7.6-2.12 3.5-6.01 5.55-3.9 2.05-8.95 2.05-1.09 0-3.72-0.16-2.62-0.17-4.04-0.17-3.53 0-5.2 0.01-1.68 0.01-2.97 0.04v-0.65q0.72-0.04 1.99-0.23 1.26-0.18 2-0.7 1.1-0.77 1.35-1.71 0.24-0.93 0.33-2.98 0.12-2.69 0.12-8.07 0-5.76-0.08-9.04-0.06-1.48-0.19-2.38-0.12-0.9-0.34-1.3-0.23-0.4-0.7-0.73-0.65-0.45-1.93-0.7-1.28-0.25-1.99-0.31v-0.63q2.15 0 3.62-0.01 1.47-0.01 3.04-0.03 1.57-0.03 3.51-0.04 1.93-0.01 4.54-0.01 3.33 0 6.48 0.89 3.15 0.88 5.71 2.69 2.57 1.8 4.05 4.59 1.49 2.79 1.49 6.43zm-5.62 0.58q0-2.05-0.69-4.05-0.69-2-1.96-3.67-1.27-1.67-3.12-3-2.21-1.58-4.57-2.2-2.36-0.61-4.72-0.61-0.97 0-1.27 0.11-0.29 0.11-0.37 0.49-0.07 0.38-0.13 1.67-0.04 1.11-0.07 2.69-0.03 1.58-0.04 3.59-0.01 2.01-0.01 3.87 0 8.62 0.08 11.61 0.55 1.23 2.29 1.88 1.73 0.64 3.27 0.64 2.22 0 4.23-0.72 2.01-0.71 3.32-1.98 1.52-1.48 2.33-3.11 0.81-1.63 1.12-3.33 0.31-1.71 0.31-3.88z"/>
		<path id="&lt;Compound Path&gt;" class="s1" d="m203.64 24.28q-0.72 0.06-2 0.3-1.28 0.24-1.9 0.67-0.59 0.43-0.89 1.04-0.3 0.62-0.38 1.3-0.08 0.67-0.12 1.78-0.07 1.48-0.1 3.46-0.03 1.98-0.03 5.04 0 6.87 0.13 9.58 0.06 1.93 0.32 2.82 0.27 0.9 1.24 1.37 0.67 0.33 1.84 0.53 1.17 0.21 1.81 0.27v0.64h-15.21v-0.64q0.59-0.06 1.66-0.24 1.06-0.17 1.86-0.52 0.83-0.35 1.18-1.31 0.35-0.97 0.45-2.88 0.13-2.75 0.13-9.58 0-4.93-0.09-8.33-0.06-1.99-0.31-2.92-0.26-0.92-0.95-1.41-0.51-0.41-1.8-0.66-1.29-0.25-2.01-0.31v-0.63h15.17z"/>
		<path id="&lt;Compound Path&gt;" fill-rule="evenodd" class="s1" d="m264.8 57.04q-1.54 2.26-3.29 3.86-1.74 1.59-4.38 2.61-2.63 1.02-6.12 1.02-2.1 0-4.11-0.5-2.01-0.49-3.93-1.38-1.92-0.9-3.72-2.07-2.12-1.38-4.45-3.04-2.33-1.67-5.69-4.18-0.47 0.02-1.59 0.05-1.12 0.04-2.47 0.04-2.08 0-4.85-0.76-2.77-0.76-5.38-2.46-2.62-1.69-4.38-4.63-1.75-2.95-1.75-7.07 0-4.44 2.21-7.99 2.2-3.55 6.05-5.53 3.85-1.98 8.46-1.98 3.31 0 6.19 1.14 2.89 1.14 5.02 3.2 2.13 2.06 3.3 4.73 1.17 2.66 1.17 5.72 0 3.87-2.11 7.3-2.11 3.42-5.87 5.88 1.79 1.38 5.25 3.82 3.47 2.43 6.59 3.98 2.85 1.37 5.02 2.01 2.17 0.64 4.28 0.64 2.79 0 4.62-0.62 1.82-0.61 2.89-1.58 1.07-0.96 2.4-2.69zm-29.47-17.72q0-3.93-1.31-7.31-1.32-3.37-3.84-5.35-2.52-1.98-5.93-1.98-2.57 0-4.8 1.52-2.24 1.52-3.57 4.4-1.34 2.88-1.34 6.71 0 4.76 1.94 8.02 1.94 3.26 5.06 4.85 3.12 1.59 6.61 1.59 0.43 0 1.15-0.08 0.72-0.08 1-0.15 2.3-1.66 3.67-4.7 1.36-3.05 1.36-7.52z"/>
		<g id="&lt;Group&gt;">
			<path id="&lt;Compound Path&gt;" class="s0" d="m95.72 63.68h2.64v4.88h7.79v-4.88h2.64v12.55h-2.64v-5.7h-7.79v5.7h-2.64z"/>
			<path id="&lt;Compound Path&gt;" fill-rule="evenodd" class="s0" d="m132.1 76.58q-1.99 0-3.39-0.54-1.41-0.53-2.3-1.45-0.88-0.91-1.29-2.12-0.4-1.2-0.4-2.52 0-1.32 0.4-2.52 0.41-1.2 1.29-2.12 0.89-0.91 2.3-1.45 1.4-0.54 3.39-0.54 1.99 0 3.4 0.54 1.4 0.54 2.29 1.45 0.89 0.92 1.29 2.12 0.41 1.2 0.41 2.52 0 1.32-0.41 2.52-0.4 1.21-1.29 2.12-0.89 0.92-2.29 1.45-1.41 0.54-3.4 0.54zm0-1.97q1.11 0 1.97-0.34 0.86-0.34 1.46-0.96 0.6-0.61 0.91-1.47 0.3-0.85 0.3-1.89 0-1.02-0.3-1.88-0.31-0.86-0.91-1.48-0.6-0.61-1.46-0.95-0.86-0.35-1.97-0.35-1.11 0-1.97 0.35-0.86 0.34-1.46 0.95-0.6 0.62-0.9 1.48-0.31 0.86-0.31 1.88 0 1.04 0.31 1.89 0.3 0.86 0.9 1.47 0.6 0.62 1.46 0.96 0.86 0.34 1.97 0.34z"/>
			<path id="&lt;Compound Path&gt;" class="s0" d="m158.84 65.64h-4.71v-1.96h12.06v1.96h-4.71v10.59h-2.64z"/>
			<path id="&lt;Compound Path&gt;" class="s0" d="m181.54 63.68h10.9v1.96h-8.26v3.17h7.93v1.97h-7.93v3.48h8.4v1.97h-11.04z"/>
			<path id="&lt;Compound Path&gt;" class="s0" d="m208.64 63.68h2.63v10.47h7.63v2.08h-10.26z"/>
		</g>
		<g id="&lt;Group&gt;">
			<path id="&lt;Path&gt;" class="s2" d="m40.41 45.73c0 0-4.33-8-1.79-16.37 2.54-8.36 1.79-10.53 1.79-10.53 0 0-0.64-0.94 0.1-1.13 0.74-0.18 4.32 3.08 5.54 14.02 0.66 5.92-2.73 8.18-3.58 12.88 0 0-0.9-1.88-0.49-6.58 0.4-4.71-0.54-6.31-0.54-6.31 0 0 0.06 3.58-0.63 6.31-0.69 2.72-0.4 7.71-0.4 7.71z"/>
			<path id="&lt;Path&gt;" class="s2" d="m32.41 37.26c0 0-4.79-2.35-7.71-4.13-2.91-1.79-4.04-0.66-4.04-0.66 0 0-0.19 2.25 2.63 6.3 2.82 4.04 7.9 10.25 15.14 9.68 0 0-5.92-2.66-9.4-8.15 0 0 4.14 2.98 6.39 3.92 0 0-2.07-3.01-3.01-6.96z"/>
			<path id="&lt;Path&gt;" class="s2" d="m51.46 38.67c0 0 2.39-1.22 5.4-2.91 3.01-1.69 3.48-2.73 4.05-2.35 0.56 0.37-0.57 12.58-16.65 15.08 0 0 6.4-1.92 10.63-9.06 0 0-5.55 4.73-9.97 7.02 0 0 2.82-4.77 6.54-7.78z"/>
			<path id="&lt;Path&gt;" class="s2" d="m42.64 46.4q1.52-2.62 3.28-5.1 0.89-1.24 1.86-2.42c0.64-0.79 1.39-1.55 2.05-2.25q0.99-1.1 1.77-2.29 0.78-1.18 1.4-2.43c0.43-0.84 0.78-1.73 1.14-2.66 0.35-0.92 0.7-1.87 1.13-2.82q0.04-0.07 0.12-0.04 0.05 0.02 0.06 0.08 0.11 1.54-0.08 3.08-0.16 1.55-0.71 3.08c-0.38 1-0.94 1.95-1.62 2.77q-1.04 1.21-2.19 2.25c-0.78 0.7-1.49 1.32-2.18 2.04q-1.05 1.05-2.04 2.17c-1.34 1.49-2.59 3.06-3.84 4.64q-0.05 0.06-0.12 0.01-0.06-0.05-0.03-0.11z"/>
			<path id="&lt;Path&gt;" class="s2" d="m40.23 47.12c-1.63-1.18-2.92-2.77-4-4.47-1.08-1.71-1.92-3.57-2.49-5.53q-0.21-0.74-0.37-1.49c-0.13-0.47-0.22-0.94-0.38-1.4-0.26-0.92-0.66-1.8-1.01-2.69-0.35-0.9-0.63-1.81-0.94-2.74-0.3-0.93-0.61-1.86-0.86-2.86l-0.01-0.01q-0.01-0.08 0.07-0.11 0.05-0.01 0.08 0.01c0.83 0.66 1.47 1.48 2.04 2.33 0.56 0.85 1.05 1.76 1.38 2.73 0.33 0.98 0.52 1.99 0.7 3q0.13 0.76 0.23 1.51 0.1 0.71 0.26 1.42c0.4 1.88 1.07 3.72 1.95 5.46 0.89 1.73 2.01 3.37 3.46 4.7q0.06 0.06 0.01 0.13-0.06 0.05-0.12 0.01z"/>
			<path id="&lt;Path&gt;" class="s2" d="m40.3 49.48c-1.4 0.36-2.74 0.91-4.02 1.56q-0.97 0.47-1.88 1.02c-0.63 0.35-1.22 0.75-1.82 1.14q-0.87 0.61-1.69 1.3-0.82 0.67-1.7 1.27c-0.6 0.39-1.17 0.81-1.81 1.17-0.62 0.38-1.24 0.77-1.96 1.08q-0.08 0.02-0.13-0.05-0.01-0.04 0.01-0.08c0.7-1.37 1.67-2.52 2.77-3.54 1.09-1.03 2.47-1.69 3.77-2.39 0.67-0.34 1.33-0.68 2.01-0.97q1.03-0.44 2.09-0.79 1.06-0.35 2.14-0.58 1.08-0.25 2.2-0.32 0.08 0.01 0.09 0.09 0 0.07-0.07 0.09z"/>
			<path id="&lt;Path&gt;" class="s2" d="m43.86 49.71c1.06 0.78 2.29 1.29 3.54 1.65q0.94 0.28 1.9 0.43 0.47 0.1 0.96 0.14 0.47 0.08 0.96 0.1 0.49 0.03 0.97 0.04l0.97-0.05q0.48 0 0.97-0.02 0.48-0.01 0.96 0.02c0.65 0.03 1.31 0.04 1.97 0.13 0.67 0.03 1.34 0.1 2.04 0.26h0.01q0.08 0.03 0.07 0.11-0.01 0.05-0.05 0.07-0.93 0.51-1.93 0.82-1 0.28-2.04 0.42c-1.38 0.16-2.78-0.08-4.13-0.37q-0.51-0.09-1.02-0.22-0.51-0.12-1-0.28-0.99-0.32-1.94-0.75-0.93-0.45-1.79-1.03c-0.57-0.39-1.1-0.82-1.55-1.35q-0.05-0.06 0.01-0.12 0.05-0.05 0.11-0.01z"/>
			<path id="&lt;Path&gt;" class="s2" d="m42.06 50.36q-0.27 2.09-0.25 4.19 0 1.05 0.06 2.09l0.06 1.04 0.1 1.03c0.14 1.38 0.51 2.72 0.62 4.09 0.05 0.69 0.12 1.38 0.14 2.08 0.03 0.71 0.08 1.41 0.01 2.17q-0.01 0.09-0.1 0.09-0.04-0.01-0.07-0.04c-0.86-1.22-1.42-2.59-1.76-4q-0.27-1.06-0.29-2.15-0.02-1.09 0-2.17 0.01-2.17 0.33-4.3c0.23-1.41 0.51-2.82 0.98-4.17q0.03-0.07 0.11-0.05 0.07 0.02 0.06 0.09z"/>
			<path id="&lt;Path&gt;" class="s2" d="m37.82 51.84c0 0-6.82 2.06-10.86 12.64 0 0-1.32 3.44 1.32 2.59 2.63-0.84 10.62-7.05 10.62-7.05 0 0-0.94-2.86 0.85-7.07 0 0-5.08 3.78-8.28 8.95 0 0 2.82-6.49 6.35-10.06z"/>
			<path id="&lt;Path&gt;" class="s2" d="m43.79 52.95c0 0 3.57 10.48 12.41 12.54 0 0 0.49-3.97-3.56-10.08 0 0-5.56-0.41-8.85-2.46z"/>
		</g>
	</g>
</svg>