<svg version="1.2" xmlns="http://www.w3.org/2000/svg" viewBox="0 0 1236 956" width="40" height="31">
	<style>
		.s0 { fill: #00adee } 
		.s1 { fill: #fdbf0d } 
		.s2 { fill: #00a550 } 
		.s3 { fill: #a32c32 } 
		.s4 { fill: #a87b4f } 
	</style>
	<g id="Capa 1">
		<g id="&lt;Group&gt;">
			<g id="&lt;Group&gt;">
				<path id="&lt;Path&gt;" class="s0" d="m1076.36 501.79c-162.45 71.17-429.53 102.76-629.63 131.69-239.98 34.69-166.94 199.28-166.94 199.28 0 0-5.57-149.22 166.94-176.64 529.51-84.16 629.63-154.33 629.63-154.33z"/>
				<path id="&lt;Path&gt;" class="s1" d="m684.12 180.3c35.27-6.59 51.99-32.27 91.24-65.15-16.84-14.99-39.08-24.2-63.54-24.2-40.37 0-76.3 27.9-90.09 62.95 18.91 6.68 41.3 30.34 62.39 26.4z"/>
				<path id="&lt;Path&gt;" class="s2" d="m1106.34 237.66c-21.93 20.46-47.28 22.22-78.47 11.46-24.49-8.46-48.03-49.72-65.92-79.13-27.27-44.81-69.03-95.35-113.73-98.05-11.48-0.69-24.04 7.93-35.71 18.33h-0.01c-9.8 8.73-18.99 18.7-26.39 25.51-3.6 3.3-7.13 6.74-10.63 10.23-32.38 29.78-77.47 67.36-98.94 67.36-11.19 0-22.69-12.26-31.87-18.26-54.9-35.86-92.45 16.95-110.39 33.91-17.94 16.95-32.6 49.63-73.19 13.78-8.78-7.75-16.22-10.02-21.04-10.52v-0.08c-0.31-0.01-0.59 0.02-0.89 0.02-3.18-0.2-5.03 0.35-5.03 0.35v0.02c-13.87 2.09-20.2 12.08-20.2 12.08l-36.75 62.6c0 0-99.39 156.51-149.98 232.54-50.59 76.03-59.62 13-59.62 13 2.71-14.93 6.42-32.24 11.17-52.03q12.08-50.44 28.74-94.65 26.62-71.08 24.08-117.76c-2.3-42.3-16.85-74.62-44.85-85.87-14.5-4.17-36.84-4.94-65.42 8.25-10.22 4.72-19.66 10.88-28.58 17.9q-13.38 10.54-24.56 25.69-11.18 15.15-16.6 32.3-5.43 17.15-4.65 31.39 0.33 6.1 1.65 11.46 4.89 18.28 17.14 28.46 12.26 10.19 25.85 9.29 13.6-0.91 27.04-10.31 13.45-9.41 22.2-23.94 8.75-14.54 8-28.33-0.76-13.78-9.1-20.04-4.48-3.1-9.59-2.76-5.11 0.34-9.69 3.03-4.57 2.68-4.49 4.15 0.08 1.48 3.9-0.03 3.81-1.5 7.7-1.76 3.88-0.26 7.81 4.02 3.93 4.27 4.48 14.45 1.03 18.76-13.09 36.49-14.12 17.73-31.29 18.87-12.27 0.82-21.69-6.27-9.42-7.08-13.54-22.47-1.07-4.69-1.36-9.89-0.69-12.65 3.67-28.71c2.91-10.71 8.71-20.51 16.06-30 7.7-9.92 13.54-15.86 21.84-23.35 30.03-27.12 57.23-27.12 57.23-27.12 19.9-0.75 40.47 6.73 46.42 36.66 0.86 4.31 1.41 10.29 1.82 17.91q0.62 11.44-2.13 30.82-7.02 50.11-24.43 103.72-44.81 141.62-41.68 199.02 1.93 35.46 22.42 38.32c2.57 0.45 5.11 0.41 7.65 0.42 16.52 0.07 25.39 0.07 45.71-21.79 71.86-77.31 126.76-175.27 182.2-267.18 13.02-21.59 26.31-41.76 41.45-61.24 8.42-10.82 18.43 1.07 27.49 12.12 17.12 20.87 30.32 15.38 38.43 6.96 31-32.17 46.46-59.72 76.37-81.73 23.91-17.59 51.22-0.26 73.1 13.94 20.92 13.58 41.74 9.02 62.11-3.5 23.64-14.52 43.49-42.06 64.06-62.85 20.98-21.22 55.61-64.39 83.04-53.45 25.62 10.21 49.17 30.5 69.02 54.32 20.25 24.29 34.23 56.37 55.04 79.93 32.87 37.21 80.92 38.41 117.83 12.68q4.94-3.7 9.48-8.23c10.14-9.47 3.54-12.02-6.7-2.46z"/>
				<g id="&lt;Group&gt;">
					<g id="&lt;Group&gt;">
						<path id="&lt;Path&gt;" class="s3" d="m633.72 330.9q7.94-0.37 14.22-6.27 6.28-5.9 7.32-13.91 1.04-8-4.12-13.38-5.16-5.38-13.1-5.02-7.94 0.37-14.22 6.27-6.29 5.91-7.32 13.91-0.58 7.99 4.36 13.37 4.92 5.39 12.86 5.03z"/>
						<path id="&lt;Compound Path&gt;" fill-rule="evenodd" class="s3" d="m604.82 364.05q-0.21-4.67-6.16-11.89l25.67-1.64q10.73-0.49 12.79 3.39 2.04 3.88-2.24 12.5l-33.37 89.04q-7.15 17.65-6.59 29.79 0.62 13.54 15.1 12.88 8.87-0.41 18.27-9.73c8.12-8.9 17.69-24.62 28.62-46.79 0.23-2.99 0.53-6 0.98-9.03 0.54-1.43 1.08-2.97 1.62-4.45 4.12-19.72 12.92-40.13 26.44-61.21q19-29.04 50.01-40.57 8.39-3.31 16.14-4.14 20.94-2.24 37.15 11.46 5.12 4.76 3.81 9.72-1.32 4.97-7.33 4.64-6.86-16.63-23.7-14.82-19.58 2.09-44.8 37.59-14.36 20.83-25.71 48.1-14.44 32.9-12.45 51.49 1.99 18.6 13.37 17.38 27.32-2.93 62.1-95.4 6.76-18.57 12-25.64 5.22-7.07 14.34-8.05 1.82-0.19 9.49 0.43 7.66 0.63 11.21-0.71-7.28 9.46-19.07 41.35-11.79 31.89-13.14 47.23-1.35 15.33-0.35 24.63 0.99 9.3 7.82 8.57 8.65-0.92 19.62-18.98 13.99-22.93 26.44-57.03c2.42-17.46 20.93-91.78 20.93-91.78l0.14-0.49c-0.45 0.09-0.87 0.16-0.85 0.08l-23.68 2.54q-2.28 0.25-3.24-2.31-0.96-2.54-0.1-5.29 0.85-2.74 3.13-2.99l27.32-2.92c0.15-0.02 13.92-67.99 20.51-100.56 0 0 2.17-13.05-6.48-17.02h24.52c0 0 7.79 0 12.7 5.7 3.24 3.76 1.25 10.34 1.25 10.34l-23.21 98.4 50.33-5.56c-0.05 0.13 2.53-0.02 3.63 2.62 0.7 1.67 0.67 3.46 0.11 5.29q-0.86 2.74-3.14 2.99l-53.5 5.55-13.01 55.18c-11.62 42.87-15.38 84.92-14.95 88.89q0.63 5.97 4.49 11.82 3.84 5.86 10.68 5.13 7.74-0.83 16.69-7.58 17.56-17.11 35.53-63.6 1.22-6.2 3.06-12.64 7.21-25.12 21.84-47.67 14.63-22.55 35.47-34.43 9.96-5.89 19.52-6.91 9.57-1.03 18.38 3.82 8.45 5.85 9.32 13.95 3.06 28.62-26.91 58.35-9.16 9.18-26.68 17.57-17.53 8.39-27.09 9.41-4.64 16.9-2.5 36.92 1.43 13.36 7.97 20.62 6.53 7.26 17.01 6.13 41.43-4.43 66.4-89.59 2.37-7.96 7.03-7.5 1.87 0.29 2.08 2.19 0.2 1.91-7.57 26.13-7.77 24.23-16.71 39.65-19.65 35.87-53.8 39.53-18.23 1.95-32.3-9.09-14.08-11.03-16.38-32.49c-0.27-2.56-0.32-5.21-0.39-7.85-1.87 4.62-3.61 8.61-5.17 11.82q-20.15 44.13-47.93 47.1-14.11 1.51-24.4-8.48-10.28-9.99-12.06-26.69c-0.55-5.14-0.67-11.08-0.45-17.68-16.85 39.95-32.91 60.81-48.19 62.44q-13.21 1.42-22.83-11.06-4.87-6.71-6.14-18.63-1.28-11.92 1.44-29.58-29.86 65.42-56.26 68.24-7.29 0.79-13.72-3.35-14.73-8.55-17.34-32.87-0.38-3.74-0.52-7.5v0.01q-0.25-3.18-0.31-6.39c-0.39 3.47-0.66 6.92-0.71 10.36-5.13 9.65-9.85 17.19-14.15 22.54q-18.15 22.83-35.19 23.6-17.05 0.79-24.99-9.15-7.94-9.92-8.52-22.54-0.58-12.6 4.81-27.83l26.41-77.49q0.8-2.84 0.59-7.51zm337.11 27.54q7.74-0.83 21.93-8.13 14.18-7.31 24.09-18.02 22.65-25.09 19.99-49.89-1.02-9.54-8.3-8.76-12.75 1.37-35.19 37.05-13.34 21.69-22.52 47.75z"/>
						<path id="&lt;Path&gt;" class="s3" d="m427.32 360.36q7.93-0.36 14.22-6.26 6.28-5.9 7.32-13.91 1.04-8-4.13-13.39-5.16-5.37-13.1-5.01-7.94 0.36-14.22 6.27-6.28 5.9-7.31 13.9-0.58 7.99 4.35 13.37 4.92 5.4 12.87 5.03z"/>
						<path id="&lt;Compound Path&gt;" fill-rule="evenodd" class="s3" d="m375.13 528.89q-7.95-9.93-8.52-22.55-0.58-12.6 4.81-27.83l26.4-77.49q0.81-2.84 0.59-7.51-0.21-4.67-6.15-11.89l25.66-1.64q10.74-0.49 12.79 3.39 2.04 3.89-2.24 12.51l-33.36 89.04q-7.15 17.65-6.59 29.78 0.61 13.55 15.09 12.88 8.87-0.4 18.28-9.73c8.71-9.54 19.06-26.84 31-51.62q-0.02 0.06-0.03 0.13c2.53-5.71 5.39-12.4 8.07-19.18 0.02-0.18 0.01-0.35 0.06-0.54l6.12-16.91q6.26-19.29 3.74-37.35-2.54-18.05-10.4-20.25 7.08-2.23 12.62-3.89 15.71-4.74 19.17-5.06 4.66-0.41 6.34 3.12 1.68 3.55 2.33 8.18 3.96 28.24-5.24 68.71c-1.67 7.36-3.04 13.98-4.16 19.98-3 16.02-4.08 27.29-3.18 33.68 0.79 5.62 1.16 9.45 2.66 11.89 4.56 7.88 29.13-29.54 31.94-34.54 6.79-12.13 17.48-30.83 28.74-49.96-4.77-9.78-4.53-12.31-4.84-19.95q-0.47-11.44 1.97-20.43 7.33-26.97 25.27-34.25c1-0.43 1.96-0.72 2.92-0.98 1.38-0.39 2.74-0.66 4.03-0.71q7.47-0.3 7.78 7.17v11.1c-21.01 50.25-74.04 158.44-101.11 159.59-8.2 0.35-14.47-1.34-18.96-4.87-5.08-3.99-7.87-10.37-8.23-19.28-0.41-10 1.91-24.47 6.88-43.29q0.5-2.85 1.05-5.81l-18.26 39.79-0.67-1.4q-0.02 0.49-0.04 0.98c-5.14 9.65-9.86 17.19-14.16 22.53q-18.14 22.83-35.18 23.61-17.06 0.78-24.99-9.15zm89.34-91.77q0.03-0.07 0.06-0.14-0.03 0.07-0.06 0.14zm-0.04 0.07q0.02-0.03 0.04-0.07-0.02 0.04-0.04 0.07zm-0.71 1.98c-0.85 2.53-1.68 4.89-2.51 7.29 0.83-2.4 1.66-4.76 2.51-7.29z"/>
						<path id="&lt;Path&gt;" class="s3" d="m1144.78 288.63c-23.46-36.73-57.82-22.01-57.82-22.01-21.05 8.71-32.52 27.77-37.54 45.39-4.93 17.34-11.35 36.13-18.29 56.34 1.27-1.7 2.78-2.6 4.61-2.5q1.91 0.21 2.18 2.06c0.12 0.9-1.1 5.76-3.64 14.47q8.36-23.95 25.74-75.64-0.01 3.32 1.22 12.11 1.23 8.79 7.98 33.34 6.75 24.55 8.76 38.9c3.02 21.53-0.53 38.34-10.48 50.55-56.67 75.76-293.52 104.72-588.68 129.11-277.12 22.9-291.04 115.27-291.04 115.27-39.22 102.5 75.93 145.52 75.93 145.52 0 0-82.25-177.15 211.32-215.11 552.56-71.46 592.47-124.01 592.47-124.01 0.23-0.13 1.91-1.01 4.23-2.24 20.05-13.52 51.49-38.63 56.14-65.67q0.01-0.02 0.01-0.03c6.89-40.16-21.53-56.3-37.82-75.21-12.48-14.48-16.02-28.11-17-33.71q-0.18-1.21-0.35-2.42-0.02-0.28-0.02-0.29l-0.01 0.03q-0.09-0.64-0.18-1.28c-2.3-16.35 7.05-28 21.01-33.26 20.78-6.83 33.46 8.78 33.64 18.09 0.23 11.94-2.89 18.75-5.8 22.52-1.83 1.01-3.45 2.43-4.77 4.18q-0.06 0.03-0.08 0.04l0.02 0.04c-1.41 1.9-2.5 4.13-3.02 6.67-1.69 8.41 3.11 16.48 10.73 18.02 4.33 0.87 8.6-0.61 11.83-3.54l0.03 0.01c0 0 0.05-0.08 0.06-0.09 2.03-1.88 3.6-4.35 4.48-7.24 6.03-10.88 14.75-31.82 4.15-48.41z"/>
					</g>
				</g>
			</g>
			<g id="&lt;Group&gt;">
				<path id="&lt;Compound Path&gt;" class="s4" d="m661.27 656.26c0.39-1.36 0.97-4.67 0.97-6.62 0-7.99-7.01-17.34-22.98-17.34-7.4 0-15.19 4.09-20.45 8.38-11.88 9.74-31.36 37.4-31.36 61.16 0 12.85 9.15 15.97 18.11 15.97 19.67 0 38.57-11.88 54.54-33.89 0.39-0.59 0.78-0.78 0.97-0.78 0.59 0 0.78 0.97 0.78 2.73 0 1.94-0.78 3.31-1.56 4.67-11.88 17.92-30.38 28.83-55.9 28.83-16.36 0-31.75-5.07-31.75-22.79 0-19.87 17.53-42.46 34.09-54.15 10.13-7.21 21.43-11.88 33.89-11.88 9.35 0 20.06 1.17 28.44 6.04 1.17 0.58 1.56 1.17 1.56 2.34-1.76 3.11-5.85 11.49-7.6 16.75z"/>
				<path id="&lt;Compound Path&gt;" fill-rule="evenodd" class="s4" d="m711.32 696c-4.48 0-9.93-1.76-12.46-6.04-3.51 8.57-10.32 20.25-20.26 26.29-2.72 1.75-7.4 3.7-10.32 3.7-4.48 0-7.01-1.95-7.01-6.23 0-9.15 7.01-19.87 12.07-25.32 5.46-5.84 15.39-11.88 23.38-12.66 0.39-2.14 1.36-5.65 3.89-6.04 1.17-0.19 5.07-1.95 6.04-3.12 0.78-0.78 1.95 0 1.36 0.98-1.75 2.92-3.31 7.59-3.31 12.66 0 7.2 1.56 14.02 8.18 14.02 6.24 0 11.1-4.48 15.2-9.54 0.58-1.17 2.14-0.2 1.16 0.78-4.67 5.65-10.32 10.52-17.92 10.52zm-14.02-9.94q-0.01 0.06-0.02 0.12 0.01 0.04 0.02 0.08zm-0.78-8.38c0-0.58 0-0.58-0.78-0.58-5.26 0-11.1 7.4-16.16 15.77-2.93 5.26-6.63 12.66-6.43 18.31 0 1.76 0.39 3.51 2.53 3.51 8.13 0 20.5-21.37 21.6-28.51-0.57-2.33-0.76-5.61-0.76-8.5z"/>
				<path id="&lt;Compound Path&gt;" fill-rule="evenodd" class="s4" d="m847.47 628.8c-0.19 0.19-0.58 0.19-0.78 0 0-3.9-5.84-8.96-15.58-8.96-16.17 0-26.49 4.48-45.97 41.29-2.72 5.26-5.25 10.32-7.98 15.97 5.26 0 13.83-0.19 17.92-0.19 1.75 0 0.78 1.56-0.39 1.56-4.87 0.19-12.86 0.38-18.31 0.58-9.93 20.26-20.26 38.95-31.16 55.12-8.77 13.05-21.43 26.49-31.36 31.36-7.21 3.51-14.81 6.04-20.46 6.04-4.28 0-8.76-1.17-11.1-3.31-8.76 9.54-20.64 16.55-32.33 16.55-11.1 0-18.11-7.59-19.09-17.14 0-1.36 0.98-1.56 1.17-0.19 1.17 5.45 7.79 12.66 18.7 12.66 14.02 0 23.76-6.04 30.58-13.44-0.39-0.78-1.37-1.95-1.37-2.73 0-1.95 5.26-9.15 6.63-8.96 0.19 1.37 0.78 3.12 1.36 4.09 5.26-7.2 8.18-12.66 13.05-22.2 9.54-18.7 20.06-42.85 27.46-57.46l-10.71 0.19c-1.36 0-1.56-0.39-1.56-0.58 0-0.78 2.73-1.95 4.29-1.95h8.96c10.52-19.09 17.72-29.21 29.41-38.17 8.18-6.24 15.58-10.72 22.4-10.72 4.87 0 7.21 1.95 7.21 6.63 0 1.16-1.17 4.86-1.37 5.64-0.19 0.78-0.58 0.78-0.78 0.39-1.75-2.72-6.23-6.62-12.66-6.62-4.28 0-7.01 0.97-10.91 3.9-9.15 7.01-15.19 25.12-21.81 39.15 6.82 0 15.58-0.2 24.54-0.39 10.91-20.45 22.79-37.4 42.85-51.81 14.61-10.52 24.93-11.88 28.63-11.88 7.02 0 11.11 3.5 11.11 11.49 0 0.97-0.2 2.53-0.59 4.09zm-107.12 50.25c-9.16 18.31-19.09 38.95-30.19 56.1-5.26 8.18-13.44 17.14-20.85 25.71 2.15 3.5 7.41 6.23 12.86 6.23 3.7 0 7.4-0.78 10.91-2.92 8.57-5.26 16.16-17.34 23.95-31.75 9.35-17.14 18.12-36.42 27.47-53.57z"/>
				<path id="&lt;Compound Path&gt;" fill-rule="evenodd" class="s4" d="m793.13 720.34c-5.84 0-9.16-2.92-9.16-8.57 0-16.36 21.43-37.59 34.67-37.59 3.51 0 4.87 1.56 4.87 3.51 0 6.03-8.96 16.36-25.32 16.36-1.17 2.72-2.14 7.4-2.14 12.46 0 5.07 2.14 7.99 7.21 7.99 12.07 0 25.12-12.08 31.94-20.84 0.39-0.59 1.36-0.2 1.36 0.58-8.76 11.1-27.26 26.1-43.43 26.1zm18.7-42.46c-5.26 0-10.72 8.18-12.86 14.22 0.59 0.19 2.14 0.39 2.92 0.39 7.41 0 12.47-4.87 12.47-12.08 0-1.36-0.97-2.53-2.53-2.53z"/>
				<path id="&lt;Compound Path&gt;" fill-rule="evenodd" class="s4" d="m835.01 720.34c-5.85 0-9.16-2.92-9.16-8.57 0-16.36 21.43-37.59 34.67-37.59 3.51 0 4.87 1.56 4.87 3.51 0 6.03-8.96 16.36-25.32 16.36-1.17 2.72-2.14 7.4-2.14 12.46 0 5.07 2.14 7.99 7.2 7.99 12.08 0 25.13-12.08 31.95-20.84 0.39-0.59 1.36-0.2 1.36 0.58-8.76 11.1-27.27 26.1-43.43 26.1zm18.69-42.46c-5.26 0-10.71 8.18-12.85 14.22 0.58 0.19 2.14 0.39 2.92 0.39 7.4 0 12.47-4.87 12.47-12.08 0-1.36-0.98-2.53-2.54-2.53z"/>
				<path id="&lt;Compound Path&gt;" class="s4" d="m986.54 649.64c-0.39 0.19-1.17-0.2-1.36-0.59 0.39-0.78 0.58-1.94 0.58-2.92 0-4.67-8.57-11.29-18.5-11.29-8.57 0-19.09 5.45-19.09 17.72 0 6.82 3.12 11.1 10.52 17.33 7.79 6.43 10.52 11.5 10.52 18.12 0 20.45-23.96 30.77-42.08 30.77-6.03 0-16.55-1.36-22.2-4.28-1.36-0.59-2.53-1.36-2.73-2.14 0.98-4.29 4.09-11.89 5.65-15.78q0.29-0.58 0.59-0.58c0.19 0 0.77 0.19 0.77 0.77-0.39 0.78-0.58 2.15-0.58 3.32 0 9.93 9.93 16.75 20.45 16.75 14.22 0 26.1-6.63 26.1-19.68 0-7.4-3.5-12.07-10.52-18.69-6.03-5.65-8.96-10.13-8.96-17.73 0-17.33 23.18-29.41 40.71-29.41 5.26 0 10.71 0.78 13.83 4.09 0.59 0.78 0.98 1.75 0.98 2.73-1.56 2.53-3.9 8.57-4.68 11.49z"/>
				<path id="&lt;Compound Path&gt;" class="s4" d="m1104.18 595.49c0-7.01-7.01-14.02-19.86-14.02-26.1 0-38.76 14.6-85.51 106.54 5.65-5.65 21.62-17.34 29.8-17.34 1.17 0 1.75 0.39 1.75 1.37q0 1.17-1.75 3.5c-4.28 6.04-16.36 29.03-16.36 35.65 0 2.72 0.58 3.89 3.31 3.89 5.07 0 15.97-6.23 30-24.54 0.39-0.58 1.17-0.58 1.17 0.39-10.13 14.02-27.47 29.61-39.93 29.61-4.29 0-6.43-1.76-6.43-6.24 0-8.18 13.83-28.63 13.83-33.3 0-0.39-0.2-0.98-0.59-0.98-2.33 0-9.35 3.51-18.5 15.78-3.7 6.43-7.99 14.02-10.71 19.48-1.17 2.34-2.34 4.09-3.9 4.09-3.31 0-6.62-2.53-6.62-4.29 0-0.58 0.19-1.36 0.58-2.14 10.72-19.67 20.26-37.79 30-54.34 23.76-40.32 56.48-84.15 85.7-84.15 7.01 0 16.95 2.93 16.95 13.25 0 2.53-1.76 7.4-2.93 7.79z"/>
				<path id="&lt;Compound Path&gt;" fill-rule="evenodd" class="s4" d="m1083.93 696c-4.48 0-9.94-1.76-12.47-6.04-3.51 8.57-10.32 20.25-20.26 26.29-2.72 1.75-7.4 3.7-10.32 3.7-4.48 0-7.01-1.95-7.01-6.23 0-9.15 7.01-19.87 12.07-25.32 5.46-5.84 15.39-11.88 23.38-12.66 0.39-2.14 1.36-5.65 3.89-6.04 1.17-0.19 5.07-1.95 6.04-3.12 0.78-0.78 1.95 0 1.36 0.98-1.75 2.92-3.31 7.59-3.31 12.66 0 7.2 1.56 14.02 8.18 14.02 6.24 0 11.11-4.48 15.2-9.54 0.58-1.17 2.14-0.2 1.17 0.78-4.68 5.65-10.33 10.52-17.92 10.52zm-14.03-9.94q-0.01 0.06-0.02 0.12 0.01 0.04 0.02 0.08zm-0.78-8.38c0-0.58 0-0.58-0.78-0.58-5.26 0-11.1 7.4-16.16 15.77-2.92 5.26-6.63 12.66-6.43 18.31 0 1.76 0.39 3.51 2.53 3.51 8.14 0 20.51-21.37 21.6-28.51-0.57-2.33-0.76-5.61-0.76-8.5z"/>
				<path id="&lt;Compound Path&gt;" fill-rule="evenodd" class="s4" d="m1097.37 715.67c-6.04 1.36-9.94 1.75-14.42 2.53-7.4 12.66-14.41 26.68-19.87 37.59-9.34 18.7-19.47 40.13-24.93 52.01-1.17 2.72-14.8 4.67-27.85 9.15-1.56 0.78-1.95-0.97-0.39-1.56 13.64-5.26 15.39-7.79 23.96-21.81 8.76-14.42 28.44-47.33 45.38-75.38-0.97-0.39-1.17-1.17-1.17-2.14 0-1.56 2.34-1.56 3.31-1.76l8.96-15.38c7.79-13.44 14.81-28.05 22.01-39.35 0.39-0.58 0.78-0.97 1.56-1.36 1.36-0.78 5.45-1.56 9.35-1.56 3.31 0 4.68 0.19 4.68 0.58 0 0.39-0.59 0.59-2.34 0.78-2.92 0.39-12.66 12.47-18.7 22.99 5.45-5.85 14.41-12.27 20.06-12.27 2.92 0 4.29 2.14 4.29 5.06 0 5.84-12.08 27.46-41.49 41.1 15.97-1.75 40.9-9.74 58.82-29.22 0.59-0.58 1.17 0 1.17 0.78-14.61 16.36-35.45 25.32-52.39 29.22zm18.3-38.76c-4.09 0-11.88 7.59-17.92 16.36-4.28 6.23-8.57 13.63-12.66 21.03 16.95-4.67 32.92-25.32 32.92-33.89 0-0.97-0.19-3.5-2.34-3.5z"/>
			</g>
		</g>
	</g>
</svg>